G04 PROTEUS GERBER X2 FILE*
%TF.GenerationSoftware,Labcenter,Proteus,8.13-SP0-Build31525*%
%TF.CreationDate,2025-12-25T14:29:14+00:00*%
%TF.FileFunction,Legend,Top*%
%TF.FilePolarity,Positive*%
%TF.Part,Single*%
%TF.SameCoordinates,{db0003a8-45e4-4f23-9e85-8f5fa2e6f16b}*%
%FSLAX45Y45*%
%MOMM*%
G01*
%TA.AperFunction,Material*%
%ADD19C,0.203200*%
%ADD70C,0.200000*%
%TD.AperFunction*%
D19*
X-10131000Y+3750000D02*
X-10125920Y+3775876D01*
X-10111315Y+3799848D01*
X-10088138Y+3821438D01*
X-10057340Y+3840170D01*
X-10019875Y+3855569D01*
X-9976695Y+3867158D01*
X-9928752Y+3874460D01*
X-9877000Y+3877000D01*
X-9623000Y+3750000D02*
X-9628080Y+3775876D01*
X-9642685Y+3799848D01*
X-9665862Y+3821438D01*
X-9696660Y+3840170D01*
X-9734125Y+3855569D01*
X-9777305Y+3867158D01*
X-9825248Y+3874460D01*
X-9877000Y+3877000D01*
X-10131000Y+3750000D02*
X-10125920Y+3724124D01*
X-10111315Y+3700152D01*
X-10088138Y+3678562D01*
X-10057340Y+3659830D01*
X-10019875Y+3644431D01*
X-9976695Y+3632842D01*
X-9928752Y+3625540D01*
X-9877000Y+3623000D01*
X-9623000Y+3750000D02*
X-9628080Y+3724124D01*
X-9642685Y+3700152D01*
X-9665862Y+3678562D01*
X-9696660Y+3659830D01*
X-9734125Y+3644431D01*
X-9777305Y+3632842D01*
X-9825248Y+3625540D01*
X-9877000Y+3623000D01*
X-9908750Y+3932880D02*
X-9924625Y+3917640D01*
X-9972250Y+3917640D01*
X-10004000Y+3948120D01*
X-10004000Y+3978600D01*
X-9972250Y+4009080D01*
X-9924625Y+4009080D01*
X-9908750Y+3993840D01*
X-9845250Y+3978600D02*
X-9813500Y+4009080D01*
X-9813500Y+3917640D01*
X-3627000Y+2750000D02*
X-3621920Y+2775876D01*
X-3607315Y+2799848D01*
X-3584138Y+2821438D01*
X-3553340Y+2840170D01*
X-3515875Y+2855569D01*
X-3472695Y+2867158D01*
X-3424752Y+2874460D01*
X-3373000Y+2877000D01*
X-3119000Y+2750000D02*
X-3124080Y+2775876D01*
X-3138685Y+2799848D01*
X-3161862Y+2821438D01*
X-3192660Y+2840170D01*
X-3230125Y+2855569D01*
X-3273305Y+2867158D01*
X-3321248Y+2874460D01*
X-3373000Y+2877000D01*
X-3627000Y+2750000D02*
X-3621920Y+2724124D01*
X-3607315Y+2700152D01*
X-3584138Y+2678562D01*
X-3553340Y+2659830D01*
X-3515875Y+2644431D01*
X-3472695Y+2632842D01*
X-3424752Y+2625540D01*
X-3373000Y+2623000D01*
X-3119000Y+2750000D02*
X-3124080Y+2724124D01*
X-3138685Y+2700152D01*
X-3161862Y+2678562D01*
X-3192660Y+2659830D01*
X-3230125Y+2644431D01*
X-3273305Y+2632842D01*
X-3321248Y+2625540D01*
X-3373000Y+2623000D01*
X-3404750Y+2932880D02*
X-3420625Y+2917640D01*
X-3468250Y+2917640D01*
X-3500000Y+2948120D01*
X-3500000Y+2978600D01*
X-3468250Y+3009080D01*
X-3420625Y+3009080D01*
X-3404750Y+2993840D01*
X-3357125Y+2993840D02*
X-3341250Y+3009080D01*
X-3293625Y+3009080D01*
X-3277750Y+2993840D01*
X-3277750Y+2978600D01*
X-3293625Y+2963360D01*
X-3341250Y+2963360D01*
X-3357125Y+2948120D01*
X-3357125Y+2917640D01*
X-3277750Y+2917640D01*
X-877000Y+7000000D02*
X-871920Y+7025876D01*
X-857315Y+7049848D01*
X-834138Y+7071438D01*
X-803340Y+7090170D01*
X-765875Y+7105569D01*
X-722695Y+7117158D01*
X-674752Y+7124460D01*
X-623000Y+7127000D01*
X-369000Y+7000000D02*
X-374080Y+7025876D01*
X-388685Y+7049848D01*
X-411862Y+7071438D01*
X-442660Y+7090170D01*
X-480125Y+7105569D01*
X-523305Y+7117158D01*
X-571248Y+7124460D01*
X-623000Y+7127000D01*
X-877000Y+7000000D02*
X-871920Y+6974124D01*
X-857315Y+6950152D01*
X-834138Y+6928562D01*
X-803340Y+6909830D01*
X-765875Y+6894431D01*
X-722695Y+6882842D01*
X-674752Y+6875540D01*
X-623000Y+6873000D01*
X-369000Y+7000000D02*
X-374080Y+6974124D01*
X-388685Y+6950152D01*
X-411862Y+6928562D01*
X-442660Y+6909830D01*
X-480125Y+6894431D01*
X-523305Y+6882842D01*
X-571248Y+6875540D01*
X-623000Y+6873000D01*
X-654750Y+7182880D02*
X-670625Y+7167640D01*
X-718250Y+7167640D01*
X-750000Y+7198120D01*
X-750000Y+7228600D01*
X-718250Y+7259080D01*
X-670625Y+7259080D01*
X-654750Y+7243840D01*
X-607125Y+7243840D02*
X-591250Y+7259080D01*
X-543625Y+7259080D01*
X-527750Y+7243840D01*
X-527750Y+7228600D01*
X-543625Y+7213360D01*
X-527750Y+7198120D01*
X-527750Y+7182880D01*
X-543625Y+7167640D01*
X-591250Y+7167640D01*
X-607125Y+7182880D01*
X-575375Y+7213360D02*
X-543625Y+7213360D01*
X+4373000Y+5250000D02*
X+4378080Y+5275876D01*
X+4392685Y+5299848D01*
X+4415862Y+5321438D01*
X+4446660Y+5340170D01*
X+4484125Y+5355569D01*
X+4527305Y+5367158D01*
X+4575248Y+5374460D01*
X+4627000Y+5377000D01*
X+4881000Y+5250000D02*
X+4875920Y+5275876D01*
X+4861315Y+5299848D01*
X+4838138Y+5321438D01*
X+4807340Y+5340170D01*
X+4769875Y+5355569D01*
X+4726695Y+5367158D01*
X+4678752Y+5374460D01*
X+4627000Y+5377000D01*
X+4373000Y+5250000D02*
X+4378080Y+5224124D01*
X+4392685Y+5200152D01*
X+4415862Y+5178562D01*
X+4446660Y+5159830D01*
X+4484125Y+5144431D01*
X+4527305Y+5132842D01*
X+4575248Y+5125540D01*
X+4627000Y+5123000D01*
X+4881000Y+5250000D02*
X+4875920Y+5224124D01*
X+4861315Y+5200152D01*
X+4838138Y+5178562D01*
X+4807340Y+5159830D01*
X+4769875Y+5144431D01*
X+4726695Y+5132842D01*
X+4678752Y+5125540D01*
X+4627000Y+5123000D01*
X+4595250Y+5432880D02*
X+4579375Y+5417640D01*
X+4531750Y+5417640D01*
X+4500000Y+5448120D01*
X+4500000Y+5478600D01*
X+4531750Y+5509080D01*
X+4579375Y+5509080D01*
X+4595250Y+5493840D01*
X+4722250Y+5448120D02*
X+4627000Y+5448120D01*
X+4690500Y+5509080D01*
X+4690500Y+5417640D01*
D70*
X+4595000Y+4865000D02*
X+4705000Y+4865000D01*
X+4595000Y+5135000D02*
X+4705000Y+5135000D01*
D19*
X+4523000Y+5266920D02*
X+4523000Y+5175480D01*
X+4618250Y+5175480D01*
X+4681750Y+5236440D02*
X+4713500Y+5266920D01*
X+4713500Y+5175480D01*
X+1873000Y+3873000D02*
X+2381000Y+3873000D01*
X+2381000Y+4127000D01*
X+1873000Y+4127000D01*
X+1873000Y+3873000D01*
X+1936500Y+4259080D02*
X+1936500Y+4167640D01*
X+2031750Y+4167640D01*
X+2063500Y+4182880D02*
X+2079375Y+4167640D01*
X+2142875Y+4167640D01*
X+2158750Y+4182880D01*
X+2158750Y+4198120D01*
X+2142875Y+4213360D01*
X+2079375Y+4213360D01*
X+2063500Y+4228600D01*
X+2063500Y+4243840D01*
X+2079375Y+4259080D01*
X+2142875Y+4259080D01*
X+2158750Y+4243840D01*
X+2222250Y+4228600D02*
X+2254000Y+4259080D01*
X+2254000Y+4167640D01*
X+3639000Y+7064580D02*
X+3636521Y+7130922D01*
X+3616435Y+7263608D01*
X+3574795Y+7396294D01*
X+3508059Y+7528980D01*
X+3408642Y+7661666D01*
X+3277464Y+7780194D01*
X+3144778Y+7861117D01*
X+3012092Y+7914067D01*
X+2879406Y+7944111D01*
X+2750000Y+7953580D01*
X+1861000Y+7064580D02*
X+1863479Y+7130922D01*
X+1883565Y+7263608D01*
X+1925205Y+7396294D01*
X+1991941Y+7528980D01*
X+2091358Y+7661666D01*
X+2222536Y+7780194D01*
X+2355222Y+7861117D01*
X+2487908Y+7914067D01*
X+2620594Y+7944111D01*
X+2750000Y+7953580D01*
X+1861000Y+7064580D02*
X+1863479Y+6998238D01*
X+1883565Y+6865552D01*
X+1925205Y+6732866D01*
X+1991941Y+6600180D01*
X+2091358Y+6467494D01*
X+2222536Y+6348966D01*
X+2355222Y+6268043D01*
X+2487908Y+6215093D01*
X+2620594Y+6185049D01*
X+2750000Y+6175580D01*
X+3639000Y+7064580D02*
X+3636521Y+6998238D01*
X+3616435Y+6865552D01*
X+3574795Y+6732866D01*
X+3508059Y+6600180D01*
X+3408642Y+6467494D01*
X+3277464Y+6348966D01*
X+3144778Y+6268043D01*
X+3012092Y+6215093D01*
X+2879406Y+6185049D01*
X+2750000Y+6175580D01*
X+3156400Y+8771460D02*
X+3867600Y+7717360D01*
X+2369000Y+8809560D02*
X+2399748Y+8855082D01*
X+2436389Y+8896079D01*
X+2478389Y+8932075D01*
X+2525210Y+8962595D01*
X+2576318Y+8987162D01*
X+2631176Y+9005299D01*
X+2689248Y+9016530D01*
X+2750000Y+9020380D01*
X+3156400Y+8771460D02*
X+3123623Y+8826641D01*
X+3084685Y+8875719D01*
X+3040091Y+8918309D01*
X+2990348Y+8954022D01*
X+2935961Y+8982473D01*
X+2877437Y+9003275D01*
X+2815281Y+9016039D01*
X+2750000Y+9020380D01*
X+4045400Y+7064580D02*
X+4042448Y+6974023D01*
X+4033692Y+6885431D01*
X+4019280Y+6799100D01*
X+3999362Y+6715330D01*
X+3974086Y+6634417D01*
X+3943602Y+6556659D01*
X+3908056Y+6482354D01*
X+3867600Y+6411800D01*
X+4045400Y+7064580D02*
X+4042448Y+7155137D01*
X+4033692Y+7243729D01*
X+4019280Y+7330060D01*
X+3999362Y+7413830D01*
X+3974086Y+7494743D01*
X+3943602Y+7572501D01*
X+3908056Y+7646806D01*
X+3867600Y+7717360D01*
X+3143700Y+5329760D02*
X+3111156Y+5282343D01*
X+3072898Y+5239511D01*
X+3029400Y+5201798D01*
X+2981140Y+5169740D01*
X+2928594Y+5143874D01*
X+2872238Y+5124734D01*
X+2812548Y+5112858D01*
X+2750000Y+5108780D01*
X+2356300Y+5345000D02*
X+2387281Y+5294011D01*
X+2424602Y+5248083D01*
X+2467698Y+5207751D01*
X+2516002Y+5173550D01*
X+2568950Y+5146017D01*
X+2625976Y+5125687D01*
X+2686515Y+5113096D01*
X+2750000Y+5108780D01*
X+1632400Y+6409260D02*
X+2356300Y+5345000D01*
X+3867600Y+6411800D02*
X+3143700Y+5329760D01*
X+2369000Y+8809560D02*
X+1632400Y+7717360D01*
X+1454600Y+7064580D02*
X+1457552Y+6974018D01*
X+1466308Y+6885391D01*
X+1480720Y+6798966D01*
X+1500638Y+6715012D01*
X+1525914Y+6633797D01*
X+1556398Y+6555588D01*
X+1591944Y+6480653D01*
X+1632400Y+6409260D01*
X+1454600Y+7064580D02*
X+1457552Y+7155137D01*
X+1466308Y+7243729D01*
X+1480720Y+7330060D01*
X+1500638Y+7413830D01*
X+1525914Y+7494743D01*
X+1556398Y+7572501D01*
X+1591944Y+7646806D01*
X+1632400Y+7717360D01*
X+2623000Y+9121980D02*
X+2654750Y+9152460D01*
X+2686500Y+9152460D01*
X+2718250Y+9121980D01*
X+2718250Y+9091500D01*
X+2686500Y+9061020D01*
X+2654750Y+9061020D01*
X+2623000Y+9091500D01*
X+2623000Y+9121980D01*
X+2686500Y+9091500D02*
X+2718250Y+9061020D01*
X+2765875Y+9137220D02*
X+2781750Y+9152460D01*
X+2829375Y+9152460D01*
X+2845250Y+9137220D01*
X+2845250Y+9121980D01*
X+2829375Y+9106740D01*
X+2781750Y+9106740D01*
X+2765875Y+9091500D01*
X+2765875Y+9061020D01*
X+2845250Y+9061020D01*
X-11597600Y+1000000D02*
X-11496000Y+1000000D01*
X-11496000Y+746000D02*
X-7432000Y+746000D01*
X-7432000Y+1254000D01*
X-11496000Y+1254000D01*
X-11496000Y+746000D01*
X-7432000Y+1000000D02*
X-7330400Y+1000000D01*
X-9591000Y+1294640D02*
X-9591000Y+1386080D01*
X-9511625Y+1386080D01*
X-9495750Y+1370840D01*
X-9495750Y+1355600D01*
X-9511625Y+1340360D01*
X-9591000Y+1340360D01*
X-9511625Y+1340360D02*
X-9495750Y+1325120D01*
X-9495750Y+1294640D01*
X-9432250Y+1355600D02*
X-9400500Y+1386080D01*
X-9400500Y+1294640D01*
X-4347600Y+1000000D02*
X-4246000Y+1000000D01*
X-4246000Y+746000D02*
X-182000Y+746000D01*
X-182000Y+1254000D01*
X-4246000Y+1254000D01*
X-4246000Y+746000D01*
X-182000Y+1000000D02*
X-80400Y+1000000D01*
X-2341000Y+1294640D02*
X-2341000Y+1386080D01*
X-2261625Y+1386080D01*
X-2245750Y+1370840D01*
X-2245750Y+1355600D01*
X-2261625Y+1340360D01*
X-2341000Y+1340360D01*
X-2261625Y+1340360D02*
X-2245750Y+1325120D01*
X-2245750Y+1294640D01*
X-2198125Y+1370840D02*
X-2182250Y+1386080D01*
X-2134625Y+1386080D01*
X-2118750Y+1370840D01*
X-2118750Y+1355600D01*
X-2134625Y+1340360D01*
X-2182250Y+1340360D01*
X-2198125Y+1325120D01*
X-2198125Y+1294640D01*
X-2118750Y+1294640D01*
X+7402400Y+1000000D02*
X+7504000Y+1000000D01*
X+7504000Y+746000D02*
X+11568000Y+746000D01*
X+11568000Y+1254000D01*
X+7504000Y+1254000D01*
X+7504000Y+746000D01*
X+11568000Y+1000000D02*
X+11669600Y+1000000D01*
X+9409000Y+1294640D02*
X+9409000Y+1386080D01*
X+9488375Y+1386080D01*
X+9504250Y+1370840D01*
X+9504250Y+1355600D01*
X+9488375Y+1340360D01*
X+9409000Y+1340360D01*
X+9488375Y+1340360D02*
X+9504250Y+1325120D01*
X+9504250Y+1294640D01*
X+9551875Y+1370840D02*
X+9567750Y+1386080D01*
X+9615375Y+1386080D01*
X+9631250Y+1370840D01*
X+9631250Y+1355600D01*
X+9615375Y+1340360D01*
X+9631250Y+1325120D01*
X+9631250Y+1309880D01*
X+9615375Y+1294640D01*
X+9567750Y+1294640D01*
X+9551875Y+1309880D01*
X+9583625Y+1340360D02*
X+9615375Y+1340360D01*
X+2402400Y+2250000D02*
X+2504000Y+2250000D01*
X+2504000Y+1996000D02*
X+6568000Y+1996000D01*
X+6568000Y+2504000D01*
X+2504000Y+2504000D01*
X+2504000Y+1996000D01*
X+6568000Y+2250000D02*
X+6669600Y+2250000D01*
X+4409000Y+2544640D02*
X+4409000Y+2636080D01*
X+4488375Y+2636080D01*
X+4504250Y+2620840D01*
X+4504250Y+2605600D01*
X+4488375Y+2590360D01*
X+4409000Y+2590360D01*
X+4488375Y+2590360D02*
X+4504250Y+2575120D01*
X+4504250Y+2544640D01*
X+4631250Y+2575120D02*
X+4536000Y+2575120D01*
X+4599500Y+2636080D01*
X+4599500Y+2544640D01*
X+9902400Y+5500000D02*
X+10004000Y+5500000D01*
X+10004000Y+5246000D02*
X+14068000Y+5246000D01*
X+14068000Y+5754000D01*
X+10004000Y+5754000D01*
X+10004000Y+5246000D01*
X+14068000Y+5500000D02*
X+14169600Y+5500000D01*
X+11909000Y+5794640D02*
X+11909000Y+5886080D01*
X+11988375Y+5886080D01*
X+12004250Y+5870840D01*
X+12004250Y+5855600D01*
X+11988375Y+5840360D01*
X+11909000Y+5840360D01*
X+11988375Y+5840360D02*
X+12004250Y+5825120D01*
X+12004250Y+5794640D01*
X+12131250Y+5886080D02*
X+12051875Y+5886080D01*
X+12051875Y+5855600D01*
X+12115375Y+5855600D01*
X+12131250Y+5840360D01*
X+12131250Y+5809880D01*
X+12115375Y+5794640D01*
X+12067750Y+5794640D01*
X+12051875Y+5809880D01*
X-5847600Y+3250000D02*
X-5746000Y+3250000D01*
X-5746000Y+2996000D02*
X-1682000Y+2996000D01*
X-1682000Y+3504000D01*
X-5746000Y+3504000D01*
X-5746000Y+2996000D01*
X-1682000Y+3250000D02*
X-1580400Y+3250000D01*
X-3841000Y+3544640D02*
X-3841000Y+3636080D01*
X-3761625Y+3636080D01*
X-3745750Y+3620840D01*
X-3745750Y+3605600D01*
X-3761625Y+3590360D01*
X-3841000Y+3590360D01*
X-3761625Y+3590360D02*
X-3745750Y+3575120D01*
X-3745750Y+3544640D01*
X-3618750Y+3620840D02*
X-3634625Y+3636080D01*
X-3682250Y+3636080D01*
X-3698125Y+3620840D01*
X-3698125Y+3559880D01*
X-3682250Y+3544640D01*
X-3634625Y+3544640D01*
X-3618750Y+3559880D01*
X-3618750Y+3575120D01*
X-3634625Y+3590360D01*
X-3698125Y+3590360D01*
X-3347600Y+4250000D02*
X-3246000Y+4250000D01*
X-3246000Y+3996000D02*
X+818000Y+3996000D01*
X+818000Y+4504000D01*
X-3246000Y+4504000D01*
X-3246000Y+3996000D01*
X+818000Y+4250000D02*
X+919600Y+4250000D01*
X-1341000Y+4544640D02*
X-1341000Y+4636080D01*
X-1261625Y+4636080D01*
X-1245750Y+4620840D01*
X-1245750Y+4605600D01*
X-1261625Y+4590360D01*
X-1341000Y+4590360D01*
X-1261625Y+4590360D02*
X-1245750Y+4575120D01*
X-1245750Y+4544640D01*
X-1198125Y+4636080D02*
X-1118750Y+4636080D01*
X-1118750Y+4620840D01*
X-1198125Y+4544640D01*
X-11097600Y+9500000D02*
X-10996000Y+9500000D01*
X-10996000Y+9246000D02*
X-6932000Y+9246000D01*
X-6932000Y+9754000D01*
X-10996000Y+9754000D01*
X-10996000Y+9246000D01*
X-6932000Y+9500000D02*
X-6830400Y+9500000D01*
X-9091000Y+9794640D02*
X-9091000Y+9886080D01*
X-9011625Y+9886080D01*
X-8995750Y+9870840D01*
X-8995750Y+9855600D01*
X-9011625Y+9840360D01*
X-9091000Y+9840360D01*
X-9011625Y+9840360D02*
X-8995750Y+9825120D01*
X-8995750Y+9794640D01*
X-8932250Y+9840360D02*
X-8948125Y+9855600D01*
X-8948125Y+9870840D01*
X-8932250Y+9886080D01*
X-8884625Y+9886080D01*
X-8868750Y+9870840D01*
X-8868750Y+9855600D01*
X-8884625Y+9840360D01*
X-8932250Y+9840360D01*
X-8948125Y+9825120D01*
X-8948125Y+9809880D01*
X-8932250Y+9794640D01*
X-8884625Y+9794640D01*
X-8868750Y+9809880D01*
X-8868750Y+9825120D01*
X-8884625Y+9840360D01*
X-8597600Y+6000000D02*
X-8496000Y+6000000D01*
X-8496000Y+5746000D02*
X-4432000Y+5746000D01*
X-4432000Y+6254000D01*
X-8496000Y+6254000D01*
X-8496000Y+5746000D01*
X-4432000Y+6000000D02*
X-4330400Y+6000000D01*
X-6591000Y+6294640D02*
X-6591000Y+6386080D01*
X-6511625Y+6386080D01*
X-6495750Y+6370840D01*
X-6495750Y+6355600D01*
X-6511625Y+6340360D01*
X-6591000Y+6340360D01*
X-6511625Y+6340360D02*
X-6495750Y+6325120D01*
X-6495750Y+6294640D01*
X-6368750Y+6355600D02*
X-6384625Y+6340360D01*
X-6432250Y+6340360D01*
X-6448125Y+6355600D01*
X-6448125Y+6370840D01*
X-6432250Y+6386080D01*
X-6384625Y+6386080D01*
X-6368750Y+6370840D01*
X-6368750Y+6309880D01*
X-6384625Y+6294640D01*
X-6432250Y+6294640D01*
X+6902400Y+10750000D02*
X+7004000Y+10750000D01*
X+7004000Y+10496000D02*
X+11068000Y+10496000D01*
X+11068000Y+11004000D01*
X+7004000Y+11004000D01*
X+7004000Y+10496000D01*
X+11068000Y+10750000D02*
X+11169600Y+10750000D01*
X+8845500Y+11044640D02*
X+8845500Y+11136080D01*
X+8924875Y+11136080D01*
X+8940750Y+11120840D01*
X+8940750Y+11105600D01*
X+8924875Y+11090360D01*
X+8845500Y+11090360D01*
X+8924875Y+11090360D02*
X+8940750Y+11075120D01*
X+8940750Y+11044640D01*
X+9004250Y+11105600D02*
X+9036000Y+11136080D01*
X+9036000Y+11044640D01*
X+9099500Y+11059880D02*
X+9099500Y+11120840D01*
X+9115375Y+11136080D01*
X+9178875Y+11136080D01*
X+9194750Y+11120840D01*
X+9194750Y+11059880D01*
X+9178875Y+11044640D01*
X+9115375Y+11044640D01*
X+9099500Y+11059880D01*
X+9099500Y+11044640D02*
X+9194750Y+11136080D01*
X+2652400Y+750000D02*
X+2754000Y+750000D01*
X+2754000Y+496000D02*
X+6818000Y+496000D01*
X+6818000Y+1004000D01*
X+2754000Y+1004000D01*
X+2754000Y+496000D01*
X+6818000Y+750000D02*
X+6919600Y+750000D01*
X+4595500Y+1044640D02*
X+4595500Y+1136080D01*
X+4674875Y+1136080D01*
X+4690750Y+1120840D01*
X+4690750Y+1105600D01*
X+4674875Y+1090360D01*
X+4595500Y+1090360D01*
X+4674875Y+1090360D02*
X+4690750Y+1075120D01*
X+4690750Y+1044640D01*
X+4754250Y+1105600D02*
X+4786000Y+1136080D01*
X+4786000Y+1044640D01*
X+4881250Y+1105600D02*
X+4913000Y+1136080D01*
X+4913000Y+1044640D01*
X-7877000Y+3508000D02*
X-7877000Y+3635000D01*
X-6861000Y+3635000D01*
X-6861000Y+3127000D01*
X-7877000Y+3127000D01*
X-7877000Y+3254000D01*
X-7750000Y+3381000D02*
X-7752436Y+3406876D01*
X-7759485Y+3430848D01*
X-7770762Y+3452438D01*
X-7785878Y+3471170D01*
X-7804446Y+3486569D01*
X-7826081Y+3498158D01*
X-7850394Y+3505460D01*
X-7877000Y+3508000D01*
X-7750000Y+3381000D02*
X-7752436Y+3354394D01*
X-7759485Y+3330081D01*
X-7770762Y+3308446D01*
X-7785878Y+3289878D01*
X-7804446Y+3274762D01*
X-7826081Y+3263485D01*
X-7850394Y+3256436D01*
X-7877000Y+3254000D01*
X-8009080Y+3254000D02*
X-7932880Y+3254000D01*
X-7917640Y+3269875D01*
X-7917640Y+3333375D01*
X-7932880Y+3349250D01*
X-8009080Y+3349250D01*
X-7978600Y+3412750D02*
X-8009080Y+3444500D01*
X-7917640Y+3444500D01*
X-5377000Y+5508000D02*
X-5377000Y+5635000D01*
X-4361000Y+5635000D01*
X-4361000Y+5127000D01*
X-5377000Y+5127000D01*
X-5377000Y+5254000D01*
X-5250000Y+5381000D02*
X-5252436Y+5406876D01*
X-5259485Y+5430848D01*
X-5270762Y+5452438D01*
X-5285878Y+5471170D01*
X-5304446Y+5486569D01*
X-5326081Y+5498158D01*
X-5350394Y+5505460D01*
X-5377000Y+5508000D01*
X-5250000Y+5381000D02*
X-5252436Y+5354394D01*
X-5259485Y+5330081D01*
X-5270762Y+5308446D01*
X-5285878Y+5289878D01*
X-5304446Y+5274762D01*
X-5326081Y+5263485D01*
X-5350394Y+5256436D01*
X-5377000Y+5254000D01*
X-5509080Y+5254000D02*
X-5432880Y+5254000D01*
X-5417640Y+5269875D01*
X-5417640Y+5333375D01*
X-5432880Y+5349250D01*
X-5509080Y+5349250D01*
X-5493840Y+5396875D02*
X-5509080Y+5412750D01*
X-5509080Y+5460375D01*
X-5493840Y+5476250D01*
X-5478600Y+5476250D01*
X-5463360Y+5460375D01*
X-5463360Y+5412750D01*
X-5448120Y+5396875D01*
X-5417640Y+5396875D01*
X-5417640Y+5476250D01*
M02*
