G04 PROTEUS GERBER X2 FILE*
%TF.GenerationSoftware,Labcenter,Proteus,8.13-SP0-Build31525*%
%TF.CreationDate,2025-12-25T14:29:14+00:00*%
%TF.FileFunction,Copper,L1,Top*%
%TF.FilePolarity,Positive*%
%TF.Part,Single*%
%TF.SameCoordinates,{db0003a8-45e4-4f23-9e85-8f5fa2e6f16b}*%
%FSLAX45Y45*%
%MOMM*%
G01*
%TA.AperFunction,Conductor*%
%ADD10C,0.254000*%
%TA.AperFunction,ViaPad*%
%ADD11C,0.762000*%
%TA.AperFunction,ComponentPad*%
%ADD12C,1.778000*%
%TA.AperFunction,SMDPad,CuDef*%
%ADD13R,1.143000X2.692400*%
%TA.AperFunction,ComponentPad*%
%ADD14R,2.032000X2.032000*%
%TA.AperFunction,ComponentPad*%
%ADD15C,2.540000*%
%ADD16C,6.350000*%
%TA.AperFunction,ComponentPad*%
%ADD17R,1.270000X1.270000*%
%ADD18C,1.270000*%
%TD.AperFunction*%
D10*
X-6988000Y+3000000D02*
X-7239161Y+3251161D01*
X-7683500Y+3251161D01*
X-7750000Y+3317661D01*
X-7750000Y+3762000D01*
X-7810500Y+1270000D02*
X-4770000Y+1270000D01*
X-4500000Y+1000000D01*
X-7937500Y+1270000D02*
X-11480000Y+1270000D01*
X-11750000Y+1000000D01*
X-7937500Y+1270000D02*
X-7810500Y+1270000D01*
X-3246000Y+2750000D02*
X-3246000Y+1079500D01*
X-3166500Y+1000000D01*
X+72000Y+1000000D01*
X-3246000Y+2750000D02*
X-3417000Y+2921000D01*
X-5969000Y+2921000D01*
X-6096000Y+2794000D01*
X-7290000Y+2794000D01*
X-7496000Y+3000000D01*
X-9750000Y+3750000D02*
X-8255000Y+3750000D01*
X-8131500Y+3873500D01*
X-7099500Y+3873500D01*
X-6988000Y+3762000D01*
X+4754000Y+5250000D02*
X+14072000Y+5250000D01*
X+14322000Y+5500000D01*
X+4754000Y+5250000D02*
X+4543000Y+5461000D01*
X+3810000Y+5461000D01*
X+3492500Y+5143500D01*
X-4598500Y+5143500D01*
X-4742000Y+5000000D01*
X-11250000Y+9500000D02*
X-9474286Y+7724286D01*
X-6958286Y+7724286D01*
X-4996000Y+5762000D01*
X+2000000Y+4000000D02*
X+2000000Y+4191000D01*
X+2122235Y+4313235D01*
X+4699000Y+4313235D01*
X+4800000Y+4414235D01*
X+4800000Y+5000000D01*
X-4996000Y+5000000D02*
X-4508287Y+4512287D01*
X+809713Y+4512287D01*
X+1072000Y+4250000D01*
X+2250000Y+2250000D02*
X-1500000Y+2250000D01*
X-3500000Y+4250000D01*
X-6678000Y+9500000D02*
X-5306000Y+8128000D01*
X+2415560Y+8128000D01*
X+3293560Y+7250000D01*
X+2222500Y+4826000D02*
X+4500000Y+4826000D01*
X+4500000Y+5000000D01*
X+2750000Y+8563180D02*
X+9135180Y+8563180D01*
X+11322000Y+10750000D01*
X-7750000Y+3000000D02*
X-10160000Y+3000000D01*
X-10223500Y+3063500D01*
X-10223500Y+3530500D01*
X-10004000Y+3750000D01*
X+2254000Y+4000000D02*
X+2254000Y+3746500D01*
X+2190500Y+3683000D01*
X-2685873Y+3683000D01*
X-2685873Y+3594100D01*
X-2667000Y+3575227D01*
X-2667000Y+3556000D01*
D11*
X-7810500Y+1270000D03*
X+2222500Y+4826000D03*
X-2667000Y+3556000D03*
D12*
X-10004000Y+3750000D03*
X-9750000Y+3750000D03*
X-3500000Y+2750000D03*
X-3246000Y+2750000D03*
X-750000Y+7000000D03*
X-496000Y+7000000D03*
X+4500000Y+5250000D03*
X+4754000Y+5250000D03*
D13*
X+4500000Y+5000000D03*
X+4800000Y+5000000D03*
D14*
X+2000000Y+4000000D03*
X+2254000Y+4000000D03*
D15*
X+2206440Y+7250000D03*
X+3293560Y+7250000D03*
D16*
X+2750000Y+8563180D03*
X+2750000Y+5565980D03*
D15*
X-11750000Y+1000000D03*
X-7178000Y+1000000D03*
X-4500000Y+1000000D03*
X+72000Y+1000000D03*
X+7250000Y+1000000D03*
X+11822000Y+1000000D03*
X+2250000Y+2250000D03*
X+6822000Y+2250000D03*
X+9750000Y+5500000D03*
X+14322000Y+5500000D03*
X-6000000Y+3250000D03*
X-1428000Y+3250000D03*
X-3500000Y+4250000D03*
X+1072000Y+4250000D03*
X-11250000Y+9500000D03*
X-6678000Y+9500000D03*
X-8750000Y+6000000D03*
X-4178000Y+6000000D03*
X+6750000Y+10750000D03*
X+11322000Y+10750000D03*
X+2500000Y+750000D03*
X+7072000Y+750000D03*
D17*
X-7750000Y+3000000D03*
D18*
X-7496000Y+3000000D03*
X-7242000Y+3000000D03*
X-6988000Y+3000000D03*
X-6988000Y+3762000D03*
X-7242000Y+3762000D03*
X-7496000Y+3762000D03*
X-7750000Y+3762000D03*
D17*
X-5250000Y+5000000D03*
D18*
X-4996000Y+5000000D03*
X-4742000Y+5000000D03*
X-4488000Y+5000000D03*
X-4488000Y+5762000D03*
X-4742000Y+5762000D03*
X-4996000Y+5762000D03*
X-5250000Y+5762000D03*
M02*
