G04 PROTEUS GERBER X2 FILE*
%TF.GenerationSoftware,Labcenter,Proteus,8.13-SP0-Build31525*%
%TF.CreationDate,2025-12-25T14:29:14+00:00*%
%TF.FileFunction,Plated,1,2,PTH*%
%TF.FilePolarity,Positive*%
%TF.Part,Single*%
%TF.SameCoordinates,{db0003a8-45e4-4f23-9e85-8f5fa2e6f16b}*%
%FSLAX45Y45*%
%MOMM*%
G01*
%TA.AperFunction,ViaDrill*%
%ADD38C,0.381000*%
%TA.AperFunction,ComponentDrill*%
%ADD39C,0.762000*%
%ADD40C,1.016000*%
%TA.AperFunction,ComponentDrill*%
%ADD41C,1.524000*%
%ADD42C,4.000000*%
%TA.AperFunction,ComponentDrill*%
%ADD43C,1.143000*%
%TD.AperFunction*%
D38*
X-7810500Y+1270000D03*
X+2222500Y+4826000D03*
X-2667000Y+3556000D03*
D39*
X-10004000Y+3750000D03*
X-9750000Y+3750000D03*
X-3500000Y+2750000D03*
X-3246000Y+2750000D03*
X-750000Y+7000000D03*
X-496000Y+7000000D03*
X+4500000Y+5250000D03*
X+4754000Y+5250000D03*
D40*
X+2000000Y+4000000D03*
X+2254000Y+4000000D03*
D41*
X+2206440Y+7250000D03*
X+3293560Y+7250000D03*
D42*
X+2750000Y+8563180D03*
X+2750000Y+5565980D03*
D43*
X-11750000Y+1000000D03*
X-7178000Y+1000000D03*
X-4500000Y+1000000D03*
X+72000Y+1000000D03*
X+7250000Y+1000000D03*
X+11822000Y+1000000D03*
X+2250000Y+2250000D03*
X+6822000Y+2250000D03*
X+9750000Y+5500000D03*
X+14322000Y+5500000D03*
X-6000000Y+3250000D03*
X-1428000Y+3250000D03*
X-3500000Y+4250000D03*
X+1072000Y+4250000D03*
X-11250000Y+9500000D03*
X-6678000Y+9500000D03*
X-8750000Y+6000000D03*
X-4178000Y+6000000D03*
X+6750000Y+10750000D03*
X+11322000Y+10750000D03*
X+2500000Y+750000D03*
X+7072000Y+750000D03*
D39*
X-7750000Y+3000000D03*
X-7496000Y+3000000D03*
X-7242000Y+3000000D03*
X-6988000Y+3000000D03*
X-6988000Y+3762000D03*
X-7242000Y+3762000D03*
X-7496000Y+3762000D03*
X-7750000Y+3762000D03*
X-5250000Y+5000000D03*
X-4996000Y+5000000D03*
X-4742000Y+5000000D03*
X-4488000Y+5000000D03*
X-4488000Y+5762000D03*
X-4742000Y+5762000D03*
X-4996000Y+5762000D03*
X-5250000Y+5762000D03*
M02*
