G04 PROTEUS GERBER X2 FILE*
%TF.GenerationSoftware,Labcenter,Proteus,8.13-SP0-Build31525*%
%TF.CreationDate,2025-12-25T14:29:14+00:00*%
%TF.FileFunction,AssemblyDrawing,Top*%
%TF.FilePolarity,Positive*%
%TF.Part,Single*%
%TF.SameCoordinates,{db0003a8-45e4-4f23-9e85-8f5fa2e6f16b}*%
%FSLAX45Y45*%
%MOMM*%
G01*
%TA.AperFunction,Material*%
%ADD19C,0.203200*%
%ADD28C,0.711200*%
%ADD29C,0.111760*%
%ADD72C,0.050000*%
%ADD73C,1.028700*%
%ADD30C,0.105240*%
%ADD31C,0.812800*%
%ADD32C,0.110060*%
%ADD33C,1.016000*%
%ADD34C,0.889000*%
%ADD35C,0.355600*%
%ADD36C,0.508000*%
%ADD37C,0.302420*%
%TD.AperFunction*%
D19*
X-10141160Y+3612840D02*
X-9612840Y+3612840D01*
X-9612840Y+3887160D01*
X-10141160Y+3887160D01*
X-10141160Y+3612840D01*
D28*
X-10004000Y+3750000D02*
X-10004000Y+3750000D01*
D29*
X-9815786Y+3727648D02*
X-9828359Y+3716472D01*
X-9866078Y+3716472D01*
X-9891224Y+3738824D01*
X-9891224Y+3761176D01*
X-9866078Y+3783528D01*
X-9828359Y+3783528D01*
X-9815786Y+3772352D01*
X-9765494Y+3761176D02*
X-9740348Y+3783528D01*
X-9740348Y+3716472D01*
D19*
X-3637160Y+2612840D02*
X-3108840Y+2612840D01*
X-3108840Y+2887160D01*
X-3637160Y+2887160D01*
X-3637160Y+2612840D01*
D28*
X-3500000Y+2750000D02*
X-3500000Y+2750000D01*
D29*
X-3311786Y+2727648D02*
X-3324359Y+2716472D01*
X-3362078Y+2716472D01*
X-3387224Y+2738824D01*
X-3387224Y+2761176D01*
X-3362078Y+2783528D01*
X-3324359Y+2783528D01*
X-3311786Y+2772352D01*
X-3274067Y+2772352D02*
X-3261494Y+2783528D01*
X-3223775Y+2783528D01*
X-3211202Y+2772352D01*
X-3211202Y+2761176D01*
X-3223775Y+2750000D01*
X-3261494Y+2750000D01*
X-3274067Y+2738824D01*
X-3274067Y+2716472D01*
X-3211202Y+2716472D01*
D19*
X-887160Y+6862840D02*
X-358840Y+6862840D01*
X-358840Y+7137160D01*
X-887160Y+7137160D01*
X-887160Y+6862840D01*
D28*
X-750000Y+7000000D02*
X-750000Y+7000000D01*
D29*
X-561786Y+6977648D02*
X-574359Y+6966472D01*
X-612078Y+6966472D01*
X-637224Y+6988824D01*
X-637224Y+7011176D01*
X-612078Y+7033528D01*
X-574359Y+7033528D01*
X-561786Y+7022352D01*
X-524067Y+7022352D02*
X-511494Y+7033528D01*
X-473775Y+7033528D01*
X-461202Y+7022352D01*
X-461202Y+7011176D01*
X-473775Y+7000000D01*
X-461202Y+6988824D01*
X-461202Y+6977648D01*
X-473775Y+6966472D01*
X-511494Y+6966472D01*
X-524067Y+6977648D01*
X-498921Y+7000000D02*
X-473775Y+7000000D01*
D19*
X+4362840Y+5112840D02*
X+4891160Y+5112840D01*
X+4891160Y+5387160D01*
X+4362840Y+5387160D01*
X+4362840Y+5112840D01*
D28*
X+4500000Y+5250000D02*
X+4500000Y+5250000D01*
D29*
X+4688214Y+5227648D02*
X+4675641Y+5216472D01*
X+4637922Y+5216472D01*
X+4612776Y+5238824D01*
X+4612776Y+5261176D01*
X+4637922Y+5283528D01*
X+4675641Y+5283528D01*
X+4688214Y+5272352D01*
X+4788798Y+5238824D02*
X+4713360Y+5238824D01*
X+4763652Y+5283528D01*
X+4763652Y+5216472D01*
D72*
X+4415000Y+4840000D02*
X+4885000Y+4840000D01*
X+4885000Y+5160000D01*
X+4415000Y+5160000D01*
X+4415000Y+4840000D01*
X+4650000Y+5050000D02*
X+4650000Y+4950000D01*
X+4700000Y+5000000D02*
X+4600000Y+5000000D01*
D73*
X+4500000Y+5000000D02*
X+4500000Y+5000000D01*
D30*
X+4624744Y+5031574D02*
X+4624744Y+4968425D01*
X+4695786Y+4968425D01*
X+4743147Y+5010524D02*
X+4766828Y+5031574D01*
X+4766828Y+4968425D01*
D19*
X+1862840Y+3862840D02*
X+2391160Y+3862840D01*
X+2391160Y+4137160D01*
X+1862840Y+4137160D01*
X+1862840Y+3862840D01*
D31*
X+2000000Y+4000000D02*
X+2000000Y+4000000D01*
D32*
X+2067312Y+4033019D02*
X+2067312Y+3966980D01*
X+2141606Y+3966980D01*
X+2166371Y+3977986D02*
X+2178753Y+3966980D01*
X+2228282Y+3966980D01*
X+2240665Y+3977986D01*
X+2240665Y+3988993D01*
X+2228282Y+4000000D01*
X+2178753Y+4000000D01*
X+2166371Y+4011006D01*
X+2166371Y+4022013D01*
X+2178753Y+4033019D01*
X+2228282Y+4033019D01*
X+2240665Y+4022013D01*
X+2290194Y+4011006D02*
X+2314959Y+4033019D01*
X+2314959Y+3966980D01*
D19*
X+1444440Y+5098620D02*
X+4055560Y+5098620D01*
X+4055560Y+9030540D01*
X+1444440Y+9030540D01*
X+1444440Y+5098620D01*
D33*
X+2206440Y+7250000D02*
X+2206440Y+7250000D01*
D34*
X+3067500Y+6264480D02*
X+2889700Y+6464505D01*
X+2889700Y+6664530D01*
X+3067500Y+6864555D01*
X+3245300Y+6864555D01*
X+3423100Y+6664530D01*
X+3423100Y+6464505D01*
X+3245300Y+6264480D01*
X+3067500Y+6264480D01*
X+3245300Y+6664530D02*
X+3423100Y+6864555D01*
X+2978600Y+7164592D02*
X+2889700Y+7264605D01*
X+2889700Y+7564642D01*
X+2978600Y+7664655D01*
X+3067500Y+7664655D01*
X+3156400Y+7564642D01*
X+3156400Y+7264605D01*
X+3245300Y+7164592D01*
X+3423100Y+7164592D01*
X+3423100Y+7664655D01*
D19*
X-11877000Y+735840D02*
X-7051000Y+735840D01*
X-7051000Y+1264160D01*
X-11877000Y+1264160D01*
X-11877000Y+735840D01*
D33*
X-11750000Y+1000000D02*
X-11750000Y+1000000D01*
D35*
X-9695140Y+893320D02*
X-9695140Y+1106680D01*
X-9495115Y+1106680D01*
X-9455110Y+1071120D01*
X-9455110Y+1035560D01*
X-9495115Y+1000000D01*
X-9695140Y+1000000D01*
X-9495115Y+1000000D02*
X-9455110Y+964440D01*
X-9455110Y+893320D01*
X-9295090Y+1035560D02*
X-9215080Y+1106680D01*
X-9215080Y+893320D01*
D19*
X-4627000Y+735840D02*
X+199000Y+735840D01*
X+199000Y+1264160D01*
X-4627000Y+1264160D01*
X-4627000Y+735840D01*
D33*
X-4500000Y+1000000D02*
X-4500000Y+1000000D01*
D35*
X-2445140Y+893320D02*
X-2445140Y+1106680D01*
X-2245115Y+1106680D01*
X-2205110Y+1071120D01*
X-2205110Y+1035560D01*
X-2245115Y+1000000D01*
X-2445140Y+1000000D01*
X-2245115Y+1000000D02*
X-2205110Y+964440D01*
X-2205110Y+893320D01*
X-2085095Y+1071120D02*
X-2045090Y+1106680D01*
X-1925075Y+1106680D01*
X-1885070Y+1071120D01*
X-1885070Y+1035560D01*
X-1925075Y+1000000D01*
X-2045090Y+1000000D01*
X-2085095Y+964440D01*
X-2085095Y+893320D01*
X-1885070Y+893320D01*
D19*
X+7123000Y+735840D02*
X+11949000Y+735840D01*
X+11949000Y+1264160D01*
X+7123000Y+1264160D01*
X+7123000Y+735840D01*
D33*
X+7250000Y+1000000D02*
X+7250000Y+1000000D01*
D35*
X+9304860Y+893320D02*
X+9304860Y+1106680D01*
X+9504885Y+1106680D01*
X+9544890Y+1071120D01*
X+9544890Y+1035560D01*
X+9504885Y+1000000D01*
X+9304860Y+1000000D01*
X+9504885Y+1000000D02*
X+9544890Y+964440D01*
X+9544890Y+893320D01*
X+9664905Y+1071120D02*
X+9704910Y+1106680D01*
X+9824925Y+1106680D01*
X+9864930Y+1071120D01*
X+9864930Y+1035560D01*
X+9824925Y+1000000D01*
X+9864930Y+964440D01*
X+9864930Y+928880D01*
X+9824925Y+893320D01*
X+9704910Y+893320D01*
X+9664905Y+928880D01*
X+9744915Y+1000000D02*
X+9824925Y+1000000D01*
D19*
X+2123000Y+1985840D02*
X+6949000Y+1985840D01*
X+6949000Y+2514160D01*
X+2123000Y+2514160D01*
X+2123000Y+1985840D01*
D33*
X+2250000Y+2250000D02*
X+2250000Y+2250000D01*
D35*
X+4304860Y+2143320D02*
X+4304860Y+2356680D01*
X+4504885Y+2356680D01*
X+4544890Y+2321120D01*
X+4544890Y+2285560D01*
X+4504885Y+2250000D01*
X+4304860Y+2250000D01*
X+4504885Y+2250000D02*
X+4544890Y+2214440D01*
X+4544890Y+2143320D01*
X+4864930Y+2214440D02*
X+4624900Y+2214440D01*
X+4784920Y+2356680D01*
X+4784920Y+2143320D01*
D19*
X+9623000Y+5235840D02*
X+14449000Y+5235840D01*
X+14449000Y+5764160D01*
X+9623000Y+5764160D01*
X+9623000Y+5235840D01*
D33*
X+9750000Y+5500000D02*
X+9750000Y+5500000D01*
D35*
X+11804860Y+5393320D02*
X+11804860Y+5606680D01*
X+12004885Y+5606680D01*
X+12044890Y+5571120D01*
X+12044890Y+5535560D01*
X+12004885Y+5500000D01*
X+11804860Y+5500000D01*
X+12004885Y+5500000D02*
X+12044890Y+5464440D01*
X+12044890Y+5393320D01*
X+12364930Y+5606680D02*
X+12164905Y+5606680D01*
X+12164905Y+5535560D01*
X+12324925Y+5535560D01*
X+12364930Y+5500000D01*
X+12364930Y+5428880D01*
X+12324925Y+5393320D01*
X+12204910Y+5393320D01*
X+12164905Y+5428880D01*
D19*
X-6127000Y+2985840D02*
X-1301000Y+2985840D01*
X-1301000Y+3514160D01*
X-6127000Y+3514160D01*
X-6127000Y+2985840D01*
D33*
X-6000000Y+3250000D02*
X-6000000Y+3250000D01*
D35*
X-3945140Y+3143320D02*
X-3945140Y+3356680D01*
X-3745115Y+3356680D01*
X-3705110Y+3321120D01*
X-3705110Y+3285560D01*
X-3745115Y+3250000D01*
X-3945140Y+3250000D01*
X-3745115Y+3250000D02*
X-3705110Y+3214440D01*
X-3705110Y+3143320D01*
X-3385070Y+3321120D02*
X-3425075Y+3356680D01*
X-3545090Y+3356680D01*
X-3585095Y+3321120D01*
X-3585095Y+3178880D01*
X-3545090Y+3143320D01*
X-3425075Y+3143320D01*
X-3385070Y+3178880D01*
X-3385070Y+3214440D01*
X-3425075Y+3250000D01*
X-3585095Y+3250000D01*
D19*
X-3627000Y+3985840D02*
X+1199000Y+3985840D01*
X+1199000Y+4514160D01*
X-3627000Y+4514160D01*
X-3627000Y+3985840D01*
D33*
X-3500000Y+4250000D02*
X-3500000Y+4250000D01*
D35*
X-1445140Y+4143320D02*
X-1445140Y+4356680D01*
X-1245115Y+4356680D01*
X-1205110Y+4321120D01*
X-1205110Y+4285560D01*
X-1245115Y+4250000D01*
X-1445140Y+4250000D01*
X-1245115Y+4250000D02*
X-1205110Y+4214440D01*
X-1205110Y+4143320D01*
X-1085095Y+4356680D02*
X-885070Y+4356680D01*
X-885070Y+4321120D01*
X-1085095Y+4143320D01*
D19*
X-11377000Y+9235840D02*
X-6551000Y+9235840D01*
X-6551000Y+9764160D01*
X-11377000Y+9764160D01*
X-11377000Y+9235840D01*
D33*
X-11250000Y+9500000D02*
X-11250000Y+9500000D01*
D35*
X-9195140Y+9393320D02*
X-9195140Y+9606680D01*
X-8995115Y+9606680D01*
X-8955110Y+9571120D01*
X-8955110Y+9535560D01*
X-8995115Y+9500000D01*
X-9195140Y+9500000D01*
X-8995115Y+9500000D02*
X-8955110Y+9464440D01*
X-8955110Y+9393320D01*
X-8795090Y+9500000D02*
X-8835095Y+9535560D01*
X-8835095Y+9571120D01*
X-8795090Y+9606680D01*
X-8675075Y+9606680D01*
X-8635070Y+9571120D01*
X-8635070Y+9535560D01*
X-8675075Y+9500000D01*
X-8795090Y+9500000D01*
X-8835095Y+9464440D01*
X-8835095Y+9428880D01*
X-8795090Y+9393320D01*
X-8675075Y+9393320D01*
X-8635070Y+9428880D01*
X-8635070Y+9464440D01*
X-8675075Y+9500000D01*
D19*
X-8877000Y+5735840D02*
X-4051000Y+5735840D01*
X-4051000Y+6264160D01*
X-8877000Y+6264160D01*
X-8877000Y+5735840D01*
D33*
X-8750000Y+6000000D02*
X-8750000Y+6000000D01*
D35*
X-6695140Y+5893320D02*
X-6695140Y+6106680D01*
X-6495115Y+6106680D01*
X-6455110Y+6071120D01*
X-6455110Y+6035560D01*
X-6495115Y+6000000D01*
X-6695140Y+6000000D01*
X-6495115Y+6000000D02*
X-6455110Y+5964440D01*
X-6455110Y+5893320D01*
X-6135070Y+6035560D02*
X-6175075Y+6000000D01*
X-6295090Y+6000000D01*
X-6335095Y+6035560D01*
X-6335095Y+6071120D01*
X-6295090Y+6106680D01*
X-6175075Y+6106680D01*
X-6135070Y+6071120D01*
X-6135070Y+5928880D01*
X-6175075Y+5893320D01*
X-6295090Y+5893320D01*
D19*
X+6623000Y+10485840D02*
X+11449000Y+10485840D01*
X+11449000Y+11014160D01*
X+6623000Y+11014160D01*
X+6623000Y+10485840D01*
D33*
X+6750000Y+10750000D02*
X+6750000Y+10750000D01*
D35*
X+8644840Y+10643320D02*
X+8644840Y+10856680D01*
X+8844865Y+10856680D01*
X+8884870Y+10821120D01*
X+8884870Y+10785560D01*
X+8844865Y+10750000D01*
X+8644840Y+10750000D01*
X+8844865Y+10750000D02*
X+8884870Y+10714440D01*
X+8884870Y+10643320D01*
X+9044890Y+10785560D02*
X+9124900Y+10856680D01*
X+9124900Y+10643320D01*
X+9284920Y+10678880D02*
X+9284920Y+10821120D01*
X+9324925Y+10856680D01*
X+9484945Y+10856680D01*
X+9524950Y+10821120D01*
X+9524950Y+10678880D01*
X+9484945Y+10643320D01*
X+9324925Y+10643320D01*
X+9284920Y+10678880D01*
X+9284920Y+10643320D02*
X+9524950Y+10856680D01*
D19*
X+2373000Y+485840D02*
X+7199000Y+485840D01*
X+7199000Y+1014160D01*
X+2373000Y+1014160D01*
X+2373000Y+485840D01*
D33*
X+2500000Y+750000D02*
X+2500000Y+750000D01*
D35*
X+4394840Y+643320D02*
X+4394840Y+856680D01*
X+4594865Y+856680D01*
X+4634870Y+821120D01*
X+4634870Y+785560D01*
X+4594865Y+750000D01*
X+4394840Y+750000D01*
X+4594865Y+750000D02*
X+4634870Y+714440D01*
X+4634870Y+643320D01*
X+4794890Y+785560D02*
X+4874900Y+856680D01*
X+4874900Y+643320D01*
X+5114930Y+785560D02*
X+5194940Y+856680D01*
X+5194940Y+643320D01*
D19*
X-7887160Y+2936500D02*
X-6850840Y+2936500D01*
X-6850840Y+3825500D01*
X-7887160Y+3825500D01*
X-7887160Y+2936500D01*
D36*
X-7750000Y+3000000D02*
X-7750000Y+3000000D01*
D37*
X-7641186Y+3516179D02*
X-7641186Y+3364964D01*
X-7607163Y+3334721D01*
X-7471070Y+3334721D01*
X-7437047Y+3364964D01*
X-7437047Y+3516179D01*
X-7300954Y+3455693D02*
X-7232907Y+3516179D01*
X-7232907Y+3334721D01*
D19*
X-5387160Y+4936500D02*
X-4350840Y+4936500D01*
X-4350840Y+5825500D01*
X-5387160Y+5825500D01*
X-5387160Y+4936500D01*
D36*
X-5250000Y+5000000D02*
X-5250000Y+5000000D01*
D37*
X-5141186Y+5516179D02*
X-5141186Y+5364964D01*
X-5107163Y+5334721D01*
X-4971070Y+5334721D01*
X-4937047Y+5364964D01*
X-4937047Y+5516179D01*
X-4834977Y+5485936D02*
X-4800954Y+5516179D01*
X-4698884Y+5516179D01*
X-4664861Y+5485936D01*
X-4664861Y+5455693D01*
X-4698884Y+5425450D01*
X-4800954Y+5425450D01*
X-4834977Y+5395207D01*
X-4834977Y+5334721D01*
X-4664861Y+5334721D01*
M02*
