G04 PROTEUS GERBER X2 FILE*
%TF.GenerationSoftware,Labcenter,Proteus,8.13-SP0-Build31525*%
%TF.CreationDate,2025-12-25T14:29:14+00:00*%
%TF.FileFunction,Copper,L2,Bot*%
%TF.FilePolarity,Positive*%
%TF.Part,Single*%
%TF.SameCoordinates,{db0003a8-45e4-4f23-9e85-8f5fa2e6f16b}*%
%FSLAX45Y45*%
%MOMM*%
G01*
%TA.AperFunction,Conductor*%
%ADD10C,0.254000*%
%TA.AperFunction,ViaPad*%
%ADD11C,0.762000*%
%TA.AperFunction,ComponentPad*%
%ADD12C,1.778000*%
%ADD14R,2.032000X2.032000*%
%TA.AperFunction,ComponentPad*%
%ADD15C,2.540000*%
%ADD16C,6.350000*%
%TA.AperFunction,ComponentPad*%
%ADD17R,1.270000X1.270000*%
%ADD18C,1.270000*%
%TD.AperFunction*%
D10*
X-6988000Y+3000000D02*
X-6988000Y+1190000D01*
X-7178000Y+1000000D01*
X-7810500Y+1270000D02*
X-7810500Y+2222500D01*
X-7874000Y+2286000D01*
X-7874000Y+3384000D01*
X-7496000Y+3762000D01*
X-7242000Y+3000000D02*
X-7242000Y+3365500D01*
X-7178500Y+3429000D01*
X-5969000Y+3429000D01*
X-5905500Y+3492500D01*
X-5905500Y+5397500D01*
X-5793444Y+5509556D01*
X-4994444Y+5509556D01*
X-4742000Y+5762000D01*
X-7496000Y+3000000D02*
X-7496000Y+3365500D01*
X-7242000Y+3619500D01*
X-7242000Y+3762000D01*
X+2000000Y+4000000D02*
X-635000Y+4000000D01*
X-750000Y+4115000D01*
X-750000Y+7000000D01*
X+2000000Y+4000000D02*
X+2000000Y+1250000D01*
X+2500000Y+750000D01*
X-4996000Y+5000000D02*
X-4996000Y+4254000D01*
X-6000000Y+3250000D01*
X-4488000Y+5762000D02*
X-4488000Y+6223000D01*
X-4424500Y+6286500D01*
X-1524000Y+6286500D01*
X-1428000Y+6190500D01*
X-1428000Y+3250000D01*
X-4488000Y+5762000D02*
X-4916000Y+5334000D01*
X-5143500Y+5334000D01*
X-5250000Y+5227500D01*
X-5250000Y+5000000D01*
X+9750000Y+3619500D02*
X+9750000Y+5500000D01*
X+2250000Y+2250000D02*
X+3238500Y+2250000D01*
X+4608000Y+3619500D01*
X+9750000Y+3619500D01*
X+11822000Y+1547500D01*
X+11822000Y+1000000D01*
X-6678000Y+9500000D02*
X-6678000Y+8072000D01*
X-8750000Y+6000000D01*
X+2222500Y+4826000D02*
X+2206440Y+4842060D01*
X+2206440Y+7250000D01*
X-496000Y+7000000D02*
X-496000Y+10668000D01*
X-414000Y+10750000D01*
X+6750000Y+10750000D01*
X-7750000Y+3000000D02*
X-7544000Y+2794000D01*
X-7175500Y+2794000D01*
X-7112000Y+2857500D01*
X-7112000Y+3111500D01*
X-7048500Y+3175000D01*
X-6858000Y+3175000D01*
X-6731000Y+3048000D01*
X-4889500Y+3048000D01*
X-4381500Y+3556000D01*
X+2254000Y+4000000D02*
X+2750000Y+4496000D01*
X+2750000Y+5565980D01*
X+6822000Y+2250000D02*
X+7072000Y+2000000D01*
X+7072000Y+750000D01*
X-4488000Y+5000000D02*
X-4178000Y+5310000D01*
X-4178000Y+6000000D01*
X-4488000Y+5000000D02*
X-4488000Y+3662500D01*
X-4381500Y+3556000D01*
X+2254000Y+4000000D02*
X+2254000Y+3588000D01*
X+2286000Y+3556000D01*
X-3492500Y+3492500D02*
X-3492500Y+3111500D01*
X-3500000Y+3104000D01*
X-3500000Y+2750000D01*
X+2750000Y+8563180D02*
X+2750000Y+5565980D01*
X-3492500Y+3492500D02*
X-3556000Y+3556000D01*
X-4381500Y+3556000D01*
X-3492500Y+3492500D02*
X-3429000Y+3556000D01*
X-2667000Y+3556000D01*
X+6822000Y+2250000D02*
X+6540500Y+1968500D01*
X+2159000Y+1968500D01*
X+2067850Y+2059650D01*
X+2067850Y+3337850D01*
X+2286000Y+3556000D01*
D11*
X-7810500Y+1270000D03*
X+2222500Y+4826000D03*
X-2667000Y+3556000D03*
D12*
X-10004000Y+3750000D03*
X-9750000Y+3750000D03*
X-3500000Y+2750000D03*
X-3246000Y+2750000D03*
X-750000Y+7000000D03*
X-496000Y+7000000D03*
X+4500000Y+5250000D03*
X+4754000Y+5250000D03*
D14*
X+2000000Y+4000000D03*
X+2254000Y+4000000D03*
D15*
X+2206440Y+7250000D03*
X+3293560Y+7250000D03*
D16*
X+2750000Y+8563180D03*
X+2750000Y+5565980D03*
D15*
X-11750000Y+1000000D03*
X-7178000Y+1000000D03*
X-4500000Y+1000000D03*
X+72000Y+1000000D03*
X+7250000Y+1000000D03*
X+11822000Y+1000000D03*
X+2250000Y+2250000D03*
X+6822000Y+2250000D03*
X+9750000Y+5500000D03*
X+14322000Y+5500000D03*
X-6000000Y+3250000D03*
X-1428000Y+3250000D03*
X-3500000Y+4250000D03*
X+1072000Y+4250000D03*
X-11250000Y+9500000D03*
X-6678000Y+9500000D03*
X-8750000Y+6000000D03*
X-4178000Y+6000000D03*
X+6750000Y+10750000D03*
X+11322000Y+10750000D03*
X+2500000Y+750000D03*
X+7072000Y+750000D03*
D17*
X-7750000Y+3000000D03*
D18*
X-7496000Y+3000000D03*
X-7242000Y+3000000D03*
X-6988000Y+3000000D03*
X-6988000Y+3762000D03*
X-7242000Y+3762000D03*
X-7496000Y+3762000D03*
X-7750000Y+3762000D03*
D17*
X-5250000Y+5000000D03*
D18*
X-4996000Y+5000000D03*
X-4742000Y+5000000D03*
X-4488000Y+5000000D03*
X-4488000Y+5762000D03*
X-4742000Y+5762000D03*
X-4996000Y+5762000D03*
X-5250000Y+5762000D03*
M02*
